<svg id="ab930fff-8b66-4c3b-8058-be50117009ca" data-name="Layer 1" xmlns="http://www.w3.org/2000/svg" viewBox="0 0 308.032 245.958">
  <defs>
    <style>
      .b88eb424-4bb8-4962-ac7d-4459500b6f03 {
        fill: #fff;
      }
    </style>
  </defs>
  <path class="b88eb424-4bb8-4962-ac7d-4459500b6f03" d="M301.381,87.033c0,28.01-14.628,52.6-28.322,69.4l-63.8,77.806H175.334L242.56,155.5a55.354,55.354,0,0,1-28.633,7.469c-20.541,0-37.347-5.913-50.419-15.872a39.71,39.71,0,0,1,.311,6.225c0,49.173-30.811,84.653-78.428,84.653-48.863,0-78.74-35.48-78.74-84.653,0-49.485,29.877-84.654,78.74-84.654,21.163,0,38.592,6.536,51.663,18.051.622-45.127,33.924-78.74,83.1-78.74C271.192,7.981,301.381,42.216,301.381,87.033ZM134.564,153.324c0-36.1-15.873-62.246-49.173-62.246-33.613,0-49.486,26.143-49.486,62.246,0,36.413,15.873,62.244,49.486,62.244C118.691,215.568,134.564,189.737,134.564,153.324Zm138.5-66.291c0-30.5-18.673-56.644-52.908-56.644-33.924,0-53.842,26.143-53.842,57.577,0,30.811,18.985,56.021,53.22,56.021C253.141,143.987,273.059,116.91,273.059,87.033Z"/>
</svg>
